<svg xmlns="http://www.w3.org/2000/svg" viewBox="0 0 256 256" role="img" aria-label="Sin foto mujer">
  <rect width="256" height="256" fill="#f5f7fb"/>
  <circle cx="128" cy="88" r="42" fill="#cfd2db"/>
  <path d="M86 86c0-29 19-48 42-48s42 19 42 48v34c0 18 6 30 16 40 8 8 16 12 24 12-8 10-20 16-36 16 10 8 18 12 28 14-10 8-24 12-40 12-10 0-20-2-34-8l-1 1c-13 5-23 7-32 7-16 0-30-4-40-12 10-2 18-6 28-14-16 0-28-6-36-16 8 0 16-4 24-12 10-10 16-22 16-40V86z" fill="#b9bcc7"/>
  <path d="M128 154c-42 0-76 26-84 60h168c-8-34-42-60-84-60z" fill="#b9bcc7"/>
</svg>
